HIERARCHY
ROOT Hips
{
  OFFSET 0 0.240689 0
  CHANNELS 6 Xposition Yposition Zposition Zrotation Xrotation Yrotation
  JOINT Bip01_Spine0
  {
    OFFSET 0 -24.7459 49.7988
    CHANNELS 6 Xposition Yposition Zposition Zrotation Xrotation Yrotation
    JOINT Bip01_Pelvis
    {
      OFFSET 0 0 0
      CHANNELS 6 Xposition Yposition Zposition Zrotation Xrotation Yrotation
      JOINT Bip01_Spine0_Tail
      {
        OFFSET -6.47486 -3.86022 0
        CHANNELS 6 Xposition Yposition Zposition Zrotation Xrotation Yrotation
        JOINT Bip01_Spine0_Tail1
        {
          OFFSET 10.3837 -0.00825882 0
          CHANNELS 6 Xposition Yposition Zposition Zrotation Xrotation Yrotation
          JOINT Bip01_Spine0_Tail2
          {
            OFFSET 10.3837 -0.00826263 0
            CHANNELS 6 Xposition Yposition Zposition Zrotation Xrotation Yrotation
            JOINT Bip01_Spine0_Tail3
            {
              OFFSET 10.3837 -0.00825882 0
              CHANNELS 6 Xposition Yposition Zposition Zrotation Xrotation Yrotation
              JOINT Bip01_Spine0_Tail4
              {
                OFFSET 10.3837 -0.00826263 0
                CHANNELS 6 Xposition Yposition Zposition Zrotation Xrotation Yrotation
                End Site
                {
                  OFFSET 0 0 0
                }
              }
            }
          }
        }
      }
      JOINT Bip01_R_Thigh
      {
        OFFSET 0 -1.52588e-005 -8.75617
        CHANNELS 6 Xposition Yposition Zposition Zrotation Xrotation Yrotation
        JOINT Bip01_R_Calf
        {
          OFFSET 19.7638 0 0
          CHANNELS 6 Xposition Yposition Zposition Zrotation Xrotation Yrotation
          JOINT Bip01_R_Foot
          {
            OFFSET 18.6534 0 0
            CHANNELS 6 Xposition Yposition Zposition Zrotation Xrotation Yrotation
            JOINT Bip01_R_Toe0
            {
              OFFSET 5.09145 13.9567 0
              CHANNELS 6 Xposition Yposition Zposition Zrotation Xrotation Yrotation
              JOINT Bip01_R_Toe01
              {
                OFFSET 4.28803 0 0
                CHANNELS 6 Xposition Yposition Zposition Zrotation Xrotation Yrotation
                JOINT Bip01_R_Toe02
                {
                  OFFSET 3.85801 0 0
                  CHANNELS 6 Xposition Yposition Zposition Zrotation Xrotation Yrotation
                  End Site
                  {
                    OFFSET 0 0 0
                  }
                }
              }
            }
          }
        }
      }
      JOINT Bip01_L_Thigh
      {
        OFFSET 0 1.52588e-005 8.75617
        CHANNELS 6 Xposition Yposition Zposition Zrotation Xrotation Yrotation
        JOINT Bip01_L_Calf
        {
          OFFSET 19.7638 0 0
          CHANNELS 6 Xposition Yposition Zposition Zrotation Xrotation Yrotation
          JOINT Bip01_L_Foot
          {
            OFFSET 18.6534 0 0
            CHANNELS 6 Xposition Yposition Zposition Zrotation Xrotation Yrotation
            JOINT Bip01_L_Toe0
            {
              OFFSET 5.09144 13.9567 0
              CHANNELS 6 Xposition Yposition Zposition Zrotation Xrotation Yrotation
              JOINT Bip01_L_Toe01
              {
                OFFSET 4.28802 0 0
                CHANNELS 6 Xposition Yposition Zposition Zrotation Xrotation Yrotation
                JOINT Bip01_L_Toe02
                {
                  OFFSET 3.85801 0 0
                  CHANNELS 6 Xposition Yposition Zposition Zrotation Xrotation Yrotation
                  End Site
                  {
                    OFFSET 0 0 0
                  }
                }
              }
            }
          }
        }
      }
      JOINT Bip01_Spine
      {
        OFFSET 9.14835 -0.00640869 -1.1e-005
        CHANNELS 6 Xposition Yposition Zposition Zrotation Xrotation Yrotation
        JOINT Bip01_Spine1
        {
          OFFSET 8.04366 -0.00638199 0
          CHANNELS 6 Xposition Yposition Zposition Zrotation Xrotation Yrotation
          JOINT Bip01_Spine2
          {
            OFFSET 8.04367 -0.00639343 0
            CHANNELS 6 Xposition Yposition Zposition Zrotation Xrotation Yrotation
            JOINT Bip01_Spine3
            {
              OFFSET 8.04304 -0.00831222 0
              CHANNELS 6 Xposition Yposition Zposition Zrotation Xrotation Yrotation
              JOINT Bip01_Neck
              {
                OFFSET 10.6685 1.06813 0
                CHANNELS 6 Xposition Yposition Zposition Zrotation Xrotation Yrotation
                JOINT Bip01_R_Clavicle
                {
                  OFFSET -3.21661 -4.89635 -9.04802
                  CHANNELS 6 Xposition Yposition Zposition Zrotation Xrotation Yrotation
                  JOINT Bip01_R_UpperArm
                  {
                    OFFSET 19.0492 0 0
                    CHANNELS 6 Xposition Yposition Zposition Zrotation Xrotation Yrotation
                    JOINT Bip01_R_Forearm
                    {
                      OFFSET 10.3706 0 0
                      CHANNELS 6 Xposition Yposition Zposition Zrotation Xrotation Yrotation
                      JOINT Bip01_R_Hand
                      {
                        OFFSET 22.8632 0 0
                        CHANNELS 6 Xposition Yposition Zposition Zrotation Xrotation Yrotation
                        JOINT Bip01_R_Finger0
                        {
                          OFFSET 6.48259 0.103651 0.504496
                          CHANNELS 6 Xposition Yposition Zposition Zrotation Xrotation Yrotation
                          JOINT Bip01_R_Finger01
                          {
                            OFFSET 3.66847 0 0
                            CHANNELS 6 Xposition Yposition Zposition Zrotation Xrotation Yrotation
                            End Site
                            {
                              OFFSET 0 0 0
                            }
                          }
                        }
                      }
                    }
                  }
                }
                JOINT Bip01_L_Clavicle
                {
                  OFFSET -3.21661 -4.89641 9.04797
                  CHANNELS 6 Xposition Yposition Zposition Zrotation Xrotation Yrotation
                  JOINT Bip01_L_UpperArm
                  {
                    OFFSET 19.0492 0 0
                    CHANNELS 6 Xposition Yposition Zposition Zrotation Xrotation Yrotation
                    JOINT Bip01_L_Forearm
                    {
                      OFFSET 10.3706 0 0
                      CHANNELS 6 Xposition Yposition Zposition Zrotation Xrotation Yrotation
                      JOINT Bip01_L_Hand
                      {
                        OFFSET 22.8631 0 0
                        CHANNELS 6 Xposition Yposition Zposition Zrotation Xrotation Yrotation
                        JOINT Bip01_L_Finger0
                        {
                          OFFSET 6.48257 0.103655 -0.504492
                          CHANNELS 6 Xposition Yposition Zposition Zrotation Xrotation Yrotation
                          JOINT Bip01_L_Finger01
                          {
                            OFFSET 3.66844 0 0
                            CHANNELS 6 Xposition Yposition Zposition Zrotation Xrotation Yrotation
                            End Site
                            {
                              OFFSET 0 0 0
                            }
                          }
                        }
                      }
                    }
                  }
                }
                JOINT Bip01_Neck1
                {
                  OFFSET 7.52459 -0.00656509 0
                  CHANNELS 6 Xposition Yposition Zposition Zrotation Xrotation Yrotation
                  JOINT Bip01_Neck2
                  {
                    OFFSET 8.4783 -0.00588226 0
                    CHANNELS 6 Xposition Yposition Zposition Zrotation Xrotation Yrotation
                    JOINT Bip01_Head
                    {
                      OFFSET 8.41606 0 0
                      CHANNELS 6 Xposition Yposition Zposition Zrotation Xrotation Yrotation
                      JOINT EyesBlue
                      {
                        OFFSET 0 0 0
                        CHANNELS 6 Xposition Yposition Zposition Zrotation Xrotation Yrotation
                        JOINT EyesBlue_2
                        {
                          OFFSET 0 -0.500007 0
                          CHANNELS 6 Xposition Yposition Zposition Zrotation Xrotation Yrotation
                          End Site
                          {
                            OFFSET 0 0 0
                          }
                        }
                      }
                      JOINT Bip01_Head2_Eyeleds
                      {
                        OFFSET 6.52751 7.61746 2.2e-005
                        CHANNELS 6 Xposition Yposition Zposition Zrotation Xrotation Yrotation
                        End Site
                        {
                          OFFSET 0 0 0
                        }
                      }
                      JOINT Bip01_Head_Muzzle
                      {
                        OFFSET 2.88628 13.9448 3.88994
                        CHANNELS 6 Xposition Yposition Zposition Zrotation Xrotation Yrotation
                        End Site
                        {
                          OFFSET 0 0 0
                        }
                      }
                      JOINT Bip01_Head1_Jaw
                      {
                        OFFSET 0.271065 1.32405 0
                        CHANNELS 6 Xposition Yposition Zposition Zrotation Xrotation Yrotation
                        JOINT _Bip01_Head11_TungeControler
                        {
                          OFFSET 4.61616 5.82872 0
                          CHANNELS 6 Xposition Yposition Zposition Zrotation Xrotation Yrotation
                          JOINT _Bip01_Ponytail3_tunge
                          {
                            OFFSET 5.17785 2.98805 0
                            CHANNELS 6 Xposition Yposition Zposition Zrotation Xrotation Yrotation
                            JOINT Bip01_Ponytail31
                            {
                              OFFSET 5.57569 0 0
                              CHANNELS 6 Xposition Yposition Zposition Zrotation Xrotation Yrotation
                              JOINT Bip01_Ponytail32
                              {
                                OFFSET 2.93165 0 0
                                CHANNELS 6 Xposition Yposition Zposition Zrotation Xrotation Yrotation
                                JOINT Bip01_Ponytail3Nub
                                {
                                  OFFSET 3.30155 0 0
                                  CHANNELS 6 Xposition Yposition Zposition Zrotation Xrotation Yrotation
                                  End Site
                                  {
                                    OFFSET 0 0 0
                                  }
                                }
                              }
                            }
                          }
                        }
                        JOINT Bip01_Head_JawNub
                        {
                          OFFSET 15.5776 -0.000389099 0
                          CHANNELS 6 Xposition Yposition Zposition Zrotation Xrotation Yrotation
                          End Site
                          {
                            OFFSET 0 0 0
                          }
                        }
                      }
                      JOINT Bip01_Ponytail2
                      {
                        OFFSET 9.40334 1.03973 -6.51764
                        CHANNELS 6 Xposition Yposition Zposition Zrotation Xrotation Yrotation
                        JOINT Bip01_Ponytail21
                        {
                          OFFSET 2.77018 -0.00640106 1.33514e-005
                          CHANNELS 6 Xposition Yposition Zposition Zrotation Xrotation Yrotation
                          End Site
                          {
                            OFFSET 0 0 0
                          }
                        }
                      }
                      JOINT Bip01_Ponytail1
                      {
                        OFFSET 9.40368 1.03969 6.51768
                        CHANNELS 6 Xposition Yposition Zposition Zrotation Xrotation Yrotation
                        JOINT Bip01_Ponytail11
                        {
                          OFFSET 2.77018 -0.00640487 0
                          CHANNELS 6 Xposition Yposition Zposition Zrotation Xrotation Yrotation
                          End Site
                          {
                            OFFSET 0 0 0
                          }
                        }
                      }
                    }
                  }
                }
              }
            }
          }
        }
      }
    }
  }
}
MOTION
Frames:	4
Frame Time:	0.0333333
0 0 0 -0 -90 -0 -0.07774 -28.7005 45.0019 90.0009 -0.000380083 100.961 0 0 0 -90 -3.50835e-015 -90 -6.47435 -3.86245 -8.5e-005 123.962 0.00013174 -3.49313e-005 8.89584 -0.008029 0.000127 -7.66486 0.000532 0.000609 10.2239 -0.00764 9e-006 8.38331 0.000303 0.000261 9.85421 -0.006031 0.000141 19.1993 0.002651 0.001884 8.04663 -0.005512 2e-005 28.6999 0.003086 0.001829 1.1e-005 -1.5e-005 -8.75617 -111.843 -3.66258 159.836 19.7638 -3.55271e-015 1e-006 -73.047 -0.000268873 -0.00187834 18.6534 0 1e-006 -1.35012 -2.38379 1.6207 5.09143 13.9567 -1e-006 115.644 10.361 7.90975 4.288 3.55271e-015 1e-006 42.0014 3.21928e-006 -1.53366e-006 3.85803 -1.3e-005 6.2208e-012 -45 -2.70566e-005 -1.22726e-005 -1.5e-005 1.5e-005 8.75617 -130.574 0.160573 -162.884 19.7638 1e-006 -1e-006 -75.0576 0.000124627 0.000954 18.6534 1e-006 1e-006 10.7511 -0.120287 1.71023 5.09144 13.9567 5.81737e-008 86.6434 -10.3569 -7.90983 4.288 7.10543e-014 1e-006 42.0012 0.00148868 0.000654372 3.858 1e-006 -3.37508e-013 -2.5 -1.18307e-005 -1.58768e-006 9.14777 -0.006309 6.5e-005 -4.95332 -0.000242 0.001944 8.04416 -0.006271 0.000116 4.50078 0.001405 0.001299 8.04443 -0.006271 0.000119 7.97443 0.001676 0.001458 8.04235 -0.00814 9.1e-005 -8.31021 0.001186 0.001372 10.6679 1.06833 1.99988e-006 -20.1631 -9.01287e-006 5.39978e-005 -2.60605 -5.24654 -9.04796 -159.884 -74.4154 129.499 19.0492 2.13163e-014 -1e-006 89.1361 -0.327972 -107.157 10.3706 1e-006 -1.1724e-013 -113.448 -0.000414094 0.00197358 22.8631 3e-006 -1e-006 -10.4774 15.0721 -10.0533 6.48256 0.103651 0.504495 -28.8498 -12.0847 -9.77618 3.66843 -4.0501e-013 3e-006 40.107 1.37953e-005 2.58242e-006 -2.60599 -5.24646 9.04786 -159.883 74.4173 -129.5 19.0492 1.42109e-014 1e-006 88.6461 0.43705 107.138 10.3706 -7.10543e-015 -7.10542e-015 -114.116 -0.000386038 0.00176346 22.8631 0 1.42108e-014 -8.87143 -11.776 10.9022 6.48256 0.103649 -0.504495 -28.851 12.0854 9.77933 3.66843 3.45058e-013 -1e-006 40.1063 0.0025387 0.00116054 7.52853 -0.006172 3.5e-005 21.5012 0.00196201 -0.000387003 8.47656 -0.006404 6.8e-005 14.001 0.000365997 0.000286001 8.41605 0 5.13478e-016 -110.995 -0.00038563 0.00204445 -3e-006 7e-006 -3e-006 -23.1098 1.37701e-015 90 1.86938e-011 -0.5 0 180 90 -90 0 0 0 -99.049 7.01671e-015 -180 5.47722 13.499 3.88993 -22.989 1.37021e-015 90 0 0 0 -85.3358 -7.01671e-015 -180 0 0 0 -155.599 1.57712e-005 -7.15193e-006 0 0 0 164.426 -2.6356e-005 1.05512e-005 0 0 0 1.83152 -2.90588e-007 7.4927e-009 0 0 0 -17.65 5.88303e-008 1.70615e-008 0 0 0 -26.1943 -2.52044e-009 -2.29886e-009 15.5776 -0.000392 -7e-006 -1.59028e-015 -9.70628e-019 -7.76503e-019 9.40556 1.0411 -6.51575 70.341 -28.9448 146.584 2.76733 -0.003068 -0.004936 -39.6016 50.8658 39.8735 9.40602 1.04106 6.51586 70.3399 28.9449 -146.583 2.76731 -0.00308 0.00497 -39.602 -50.8676 -39.8714 
0 0 0 -0 -90 -0 -0.0849158 -28.7005 44.5184 90.629 -0.181095 101.42 0 0 0 -90 3.3618e-006 -88.7376 -6.4715 -3.86245 -0.168554 124.564 -1.22765 0.845671 8.89584 -0.008029 0.000127 -7.60467 0.00053264 0.000608441 10.2239 -0.00764 9e-006 6.47561 0.000294144 0.000270942 9.85421 -0.006031 0.000141 17.1364 0.00258146 0.00197821 8.04663 -0.005512 2e-005 26.6361 0.00301813 0.00193895 1.1e-005 -1.5e-005 -8.75617 -112.295 -5.01197 162.717 19.7638 -7.10543e-015 1e-006 -76.4207 -0.000210983 -0.00187808 18.6534 3.55271e-015 1e-006 -0.340087 -5.10663 -4.93772 5.09143 13.9567 -1e-006 119.902 10.4399 2.9791 4.288 1.06581e-014 1e-006 42.0115 4.33205e-006 -2.15786e-006 3.85803 -1.3e-005 6.30252e-012 -45 -2.81708e-005 -1.25663e-005 -1.5e-005 1.5e-005 8.75617 -132.14 -2.97702 -158.411 19.7638 1e-006 -1e-006 -76.1074 0.000115339 0.000954113 18.6534 1e-006 1e-006 3.99445 -0.744952 -0.779225 5.09144 13.9567 1.38169e-007 86.4599 -10.9281 -12.6848 4.288 7.99361e-014 1e-006 48.407 0.00154648 0.000487074 3.858 1e-006 -2.34479e-013 -2.5 -9.97663e-006 -1.35358e-006 9.1436 -0.006309 0.238077 -4.95717 0.426151 -1.53985 8.04416 -0.006271 0.000116 4.50206 0.0355139 -0.0761777 8.04443 -0.006271 0.000119 7.97595 0.0492335 -0.109155 8.04235 -0.00814 9.1e-005 -8.31031 0.0560398 0.093424 10.6679 1.06833 1.99901e-006 -20.6101 -0.00144444 0.462976 -2.48579 -5.26292 -9.07197 -158.085 -70.6845 130.377 19.0492 1.42109e-014 -1e-006 80.9463 -6.35095 -106.953 10.3706 1e-006 -1.22569e-013 -119.321 -0.000520505 0.00197396 22.8631 3e-006 -1e-006 -14.6878 13.4895 -8.43456 6.48256 0.103651 0.504495 -28.8386 -12.1028 -9.10702 3.66843 -5.11147e-013 3e-006 40.107 1.39323e-005 1.2825e-006 -2.65804 -5.26343 9.02278 -161.371 74.5991 -127.702 19.0492 2.13163e-014 1e-006 90.1188 -11.7857 109.579 10.3706 -3.55272e-015 -1.06581e-014 -127.864 -0.000629737 0.00175577 22.8631 7.10543e-015 2.13163e-014 25.5098 -11.8333 8.91685 6.48256 0.103649 -0.504495 -28.8701 12.0926 9.91548 3.66843 -2.89546e-013 -1e-006 40.1661 0.00251167 0.00118026 7.52853 -0.006172 3.49999e-005 20.1989 -0.132719 -0.264397 8.47656 -0.006404 6.8e-005 12.4582 0.538701 -1.85058 8.41605 -7.10543e-015 -1.9984e-015 -108.838 3.24126 0.704284 -3e-006 7e-006 -3e-006 -23.1098 1.37701e-015 90 -1.08717e-008 -0.5 5.19584e-011 -108.133 90 -161.867 0 0 0 -99.9558 -1.52588e-005 -180 5.78508 13.5278 3.88993 -22.989 1.37021e-015 90 0 0 0 -85.3358 -7.01671e-015 -180 0 0 0 -155.815 3.62545e-006 -4.03677e-006 0 0 0 164.614 -3.04845e-005 9.21374e-006 0 0 0 1.83152 4.81761e-006 3.98686e-008 0 0 0 -17.65 -1.10099e-005 -1.83874e-006 0 0 0 -26.1943 2.34339e-006 2.30904e-006 15.5776 -0.000392 -7.00005e-006 1.59028e-015 9.93923e-017 -7.95139e-016 9.40556 1.0411 -6.51575 68.0882 -30.595 141.469 2.76733 -0.003068 -0.004936 -27.2584 37.7278 31.6303 9.40602 1.04106 6.51586 68.1743 30.7048 -140.419 2.76731 -0.00308 0.00497 -26.399 -38.1322 -30.1136 
0 0 0 -0 -90 -0 -0.092524 -28.7005 43.722 91.3125 -0.365754 102.191 0 0 0 -89.9999 2.88206e-006 -86.3903 -6.4566 -3.86245 -0.440704 125.404 -3.183 2.26006 8.89584 -0.008029 0.000127 -7.4825 0.000533936 0.000607304 10.2239 -0.00764 9e-006 3.64821 0.000280421 0.000285122 9.85421 -0.006031 0.000141 13.9919 0.00246906 0.00211683 8.04663 -0.005512 2e-005 23.4915 0.00290722 0.00210159 1.1e-005 -1.5e-005 -8.75617 -113.134 -5.60453 166.229 19.7638 -7.10543e-015 1e-006 -80.4229 -0.00016021 -0.00187459 18.6534 1.06581e-014 1e-006 0.604504 -7.12527 -11.6437 5.09143 13.9567 -1e-006 124.435 8.81286 -0.85032 4.288 -1.42109e-014 1e-006 41.9905 2.33833e-007 -2.7892e-006 3.85803 -1.3e-005 5.21538e-012 -45 -2.55371e-005 -9.1787e-006 -1.5e-005 1.5e-005 8.75617 -134.97 -6.7343 -153.389 19.7638 1e-006 -1e-006 -78.644 9.40371e-005 0.00095409 18.6534 1e-006 1e-006 -5.50314 -0.378596 -3.16091 5.09144 13.9567 1.66941e-007 84.7619 -9.60069 -18.4351 4.288 7.4607e-014 1e-006 58.7928 0.00159968 0.000203438 3.858 1e-006 -6.75016e-014 -2.5 -9.78623e-006 -9.56658e-007 9.12248 -0.006309 0.62254 -4.92384 1.1024 -4.11997 8.04416 -0.006271 0.000116 4.50367 0.0902515 -0.275534 8.04443 -0.006271 0.000119 7.97854 0.125407 -0.363434 8.04235 -0.00814 9.1e-005 -8.31066 0.143664 0.178036 10.6679 1.06833 2.0021e-006 -20.5609 -0.00350873 1.3069 -2.35637 -5.261 -9.1074 -156.552 -66.7952 131.505 19.0492 2.4869e-014 -1e-006 73.4611 -13.4678 -107.541 10.3706 1e-006 -1.42109e-013 -127.514 -0.00068872 0.0019611 22.8631 3e-006 -1e-006 -17.4672 12.1217 -7.74241 6.48256 0.103651 0.504495 -28.8607 -12.0645 -8.49286 3.66843 -3.9968e-013 3e-006 40.107 1.12157e-005 2.5864e-006 -2.79352 -5.26167 8.98219 -164.346 74.8476 -124.253 19.0492 1.06581e-014 1e-006 86.5714 -19.282 105.669 10.3706 0 -1.77636e-015 -132.988 -0.000730521 0.00174815 22.8631 -1.24345e-014 7.10542e-015 36.7304 -14.2373 4.22936 6.48256 0.103649 -0.504495 -28.8288 12.0784 9.49623 3.66843 -4.9738e-014 -1e-006 40.0442 0.00251769 0.0011774 7.52853 -0.006172 3.49997e-005 17.5735 -0.34082 -0.805416 8.47656 -0.006404 6.80001e-005 8.41066 1.63114 -4.91582 8.41605 0 3.10862e-015 -104.524 7.93178 2.25881 -3e-006 7e-006 -3e-006 -23.1098 1.37701e-015 90 -2.67061e-008 -0.5 3.61286e-010 -107.892 90 -162.108 0 0 0 -100.863 -1.52588e-005 -180 6.09294 13.5567 3.88993 -22.989 1.37021e-015 90 0 0 0 -85.3358 7.01671e-015 -180 0 0 0 -156.031 1.34179e-006 -4.61766e-006 0 0 0 164.801 -3.22273e-005 8.35238e-006 0 0 0 1.83152 2.03364e-006 9.67499e-008 0 0 0 -17.65 -1.26324e-005 -1.53398e-006 0 0 0 -26.1943 1.54085e-006 3.44802e-006 15.5776 -0.000392 -7.00004e-006 1.59028e-015 0 4.77083e-015 9.40556 1.0411 -6.51575 63.6306 -33.2203 131.778 2.76733 -0.003068 -0.004936 -13.0386 12.5296 26.042 9.40602 1.04106 6.51586 63.7629 33.4928 -129.048 2.76731 -0.00308 0.00497 -11.8027 -13.0765 -23.0427 
0 0 0 -0 -90 -0 -0.100396 -28.7005 42.9529 91.0108 -0.285665 102.921 0 0 0 -90 6.57968e-006 -83.8114 -6.43328 -3.86245 -0.707689 126.471 -5.05358 3.72551 8.89584 -0.008029 0.000127 -7.32567 0.000535596 0.00060584 10.2239 -0.00764 9e-006 0.150719 0.000262504 0.000301697 9.85421 -0.006031 0.000141 10.0871 0.00231918 0.00228006 8.04663 -0.005512 2e-005 19.5868 0.00275736 0.00229469 1.1e-005 -1.5e-005 -8.75617 -114.523 -5.96623 169.443 19.7638 0 1e-006 -84.1724 -9.16399e-005 -0.0018755 18.6534 3.55271e-015 1e-006 -0.899512 -8.69631 -19.4237 5.09143 13.9567 -1e-006 129.573 6.32005 -4.58445 4.288 -3.55271e-014 1e-006 42.0098 -9.836e-006 -3.5e-006 3.85803 -1.3e-005 2.75513e-012 -45 -1.87293e-005 -1.49487e-006 -1.5e-005 1.5e-005 8.75617 -135.508 -9.48444 -148.235 19.7638 1e-006 -1e-006 -77.7781 0.000101711 0.000954029 18.6534 1e-006 1e-006 -17.4229 0.4849 -5.65729 5.09144 13.9567 1.57419e-007 85.2824 -8.35469 -23.9304 4.288 7.81597e-014 1e-006 68.4493 0.00160206 -6.67815e-005 3.858 1e-006 7.81597e-014 -2.5 -1.39628e-005 -5.61526e-007 9.08945 -0.006309 0.999721 -4.84554 1.68462 -6.92808 8.04416 -0.006271 0.000116 4.50513 0.134497 -0.687882 8.04443 -0.006271 0.000119 7.9811 0.187234 -0.836186 8.04235 -0.00814 9.09999e-005 -8.31045 0.214592 0.0794664 10.6679 1.06833 2.01628e-006 -20.3124 -0.00109033 2.13075 -2.26173 -5.25332 -9.13605 -155.921 -62.938 131.859 19.0492 2.4869e-014 -1e-006 63.7895 -20.778 -109.395 10.3706 1e-006 -6.83897e-013 -135.346 -0.000832948 0.00192396 22.8631 3e-006 -1e-006 -21.4421 8.04152 -7.13141 6.48256 0.103651 0.504495 -28.839 -12.1009 -7.82217 3.66843 -2.44693e-013 3e-006 40.107 7.7227e-006 4.18691e-006 -2.91879 -5.25341 8.94736 -167.03 75.0198 -120.618 19.0492 2.13163e-014 1e-006 76.4749 -20.4813 94.3 10.3706 6.21725e-015 0 -127.161 -0.000592635 0.00174196 22.8631 1.77636e-014 -1.42108e-014 19.8773 -15.4411 -4.58788 6.48256 0.103649 -0.504495 -28.8679 12.0943 8.47098 3.66843 -4.31833e-012 -1e-006 40.1607 0.00233293 0.00132902 7.52853 -0.006172 3.49996e-005 14.6612 -0.535357 -1.68398 8.47656 -0.006404 6.8e-005 3.81239 3.01444 -8.20535 8.41605 -2.13163e-014 8.88178e-016 -99.7234 11.3406 3.88929 -3e-006 7e-006 -3e-006 -23.1098 1.37701e-015 90 -4.0339e-008 -0.5 4.74381e-010 -107.804 90 -162.196 0 0 0 -101.769 -1.52588e-005 -180 6.40079 13.5855 3.88993 -22.989 1.37021e-015 90 0 0 0 -85.3358 -3.24611e-014 -180 0 0 0 -156.247 3.83829e-006 -5.92176e-006 0 0 0 164.989 -3.17953e-005 8.31933e-006 0 0 0 1.83152 1.29693e-006 1.27372e-007 0 0 0 -17.65 -1.11226e-005 -1.60096e-006 0 0 0 -26.1943 -1.78318e-006 2.68867e-006 15.5776 -0.000392 -7.00002e-006 -2.20695e-032 3.97569e-016 3.18055e-015 9.40556 1.0411 -6.51575 58.7368 -34.8925 121.989 2.76733 -0.003068 -0.004936 -1.69894 -11.9436 26.5115 9.40602 1.04106 6.51586 58.7928 35.0854 -117.827 2.76731 -0.00308 0.00497 -0.967651 11.6225 -22.4143 
